<?xml version="1.0" encoding="utf-8"?>
<!-- Generator: Adobe Illustrator 24.1.2, SVG Export Plug-In . SVG Version: 6.00 Build 0)  -->
<svg version="1.1" xmlns="http://www.w3.org/2000/svg" xmlns:xlink="http://www.w3.org/1999/xlink" x="0px" y="0px"
	 viewBox="0 0 523.96 117.12" style="enable-background:new 0 0 523.96 117.12;" xml:space="preserve">
<style type="text/css">
	.st0{fill:#1A4461;}
	.st1{fill:#1B4561;}
	.st2{fill:#5F5E5E;}
	.st3{fill:#EA9D00;}
</style>
<g id="BLEU">
	<path id="BLEU3" class="st0" d="M336.74,116.44h-14.38V65.63l14.38,10.02V116.44z"/>
	<path id="BLEU2" class="st1" d="M73.42,23.49L23.49,0L12.44,23.5L73.42,23.49L73.42,23.49z"/>
	<path id="BLEU1" class="st0" d="M322.36,58.58h14.38V68.6L322.36,58.58z"/>
</g>
<g id="GRIS_1_">
	<path id="GRIS1" class="st2" d="M11.63,25.21L0,49.93l25.53,12.01V25.21H11.63z"/>
	<path id="GRIS2" class="st2" d="M65.09,89.59h33.22L82.14,52.55L65.09,89.59z M110.01,116.44L99.33,92.13H63.95l-11.2,24.31h-2.8
		l38.82-84.51l36.91,84.5L110.01,116.44z"/>
	<path id="GRIS3" class="st2" d="M147.12,89.41h30.67c-0.05-3.59-0.36-7.17-0.95-10.71c-0.58-3.15-2.03-6.08-4.2-8.44
		c-5.73-5.48-14.76-5.48-20.49,0c-2.18,2.38-3.63,5.32-4.2,8.49C147.36,82.27,147.09,85.84,147.12,89.41 M192.81,91.68h-45.7
		c-0.03,3.63,0.27,7.25,0.89,10.82c0.6,3.26,2.18,6.25,4.52,8.59c2.42,2.49,6.04,3.73,10.88,3.73c4.7,0.03,9.35-0.97,13.62-2.93
		c4.06-1.8,7.6-4.59,10.31-8.11l2.29,1.3c-3.04,3.8-6.95,6.83-11.39,8.82c-8.43,3.8-17.99,4.22-26.73,1.19
		c-3.73-1.31-7.2-3.27-10.24-5.79c-2.83-2.42-5.15-5.38-6.81-8.71c-1.55-3.14-2.36-6.61-2.35-10.12c0-3.52,0.78-6.99,2.29-10.17
		c1.56-3.29,3.77-6.23,6.49-8.65c2.97-2.53,6.38-4.49,10.05-5.79c3.8-1.35,7.8-2.02,11.84-2c4.01-0.02,8,0.65,11.77,2
		c3.59,1.28,6.9,3.24,9.73,5.79c2.65,2.44,4.79,5.38,6.3,8.65c1.47,3.19,2.23,6.66,2.23,10.17L192.81,91.68z"/>
	<path id="GRIS4" class="st2" d="M228.45,117.09c-4.07,0.01-8.12-0.66-11.96-2c-3.72-1.28-7.18-3.24-10.18-5.79l1.91-1.62
		c2.7,2.35,5.84,4.15,9.23,5.3c3.54,1.23,7.26,1.85,11.01,1.84c2.87,0.07,5.73-0.35,8.46-1.24c1.96-0.61,3.76-1.65,5.27-3.03
		c2.05-1.63,2.38-4.61,0.75-6.65c-0.22-0.28-0.48-0.53-0.75-0.75c-1.48-1.26-3.16-2.26-4.96-2.98c-2.12-0.9-5.64-2.25-10.56-4.06
		l-3.18-1.19c-3.3-1.09-6.54-2.39-9.67-3.89c-2.4-1.18-4.53-2.86-6.24-4.92c-1.75-2.23-2.65-5.01-2.54-7.84
		c-0.02-3.13,1.36-6.1,3.76-8.11c2.85-2.41,6.23-4.12,9.86-4.98c3.28-0.85,6.66-1.29,10.05-1.3c4.06-0.02,8.08,0.68,11.9,2.05
		c3.65,1.3,7.03,3.24,9.99,5.73l-1.91,1.62c-2.73-2.31-5.85-4.11-9.23-5.3c-3.49-1.24-7.18-1.86-10.88-1.84
		c-3.51-0.12-6.99,0.59-10.18,2.05c-2.16,0.84-3.94,2.46-4.96,4.54c-0.14,0.42-0.23,0.86-0.25,1.3c0,1.8,1.23,3.35,3.69,4.65
		c3.63,1.79,7.37,3.34,11.2,4.65c0.76,0.22,1.91,0.61,3.43,1.19l2.42,0.87c4.75,1.73,8.42,3.19,11.01,4.38
		c2.43,1.08,4.65,2.58,6.55,4.43c1.73,1.65,2.7,3.94,2.67,6.33c-0.14,3.91-2.01,7.55-5.09,9.96c-2.25,1.73-4.71,3.16-7.32,4.27
		C237.53,116.48,233,117.28,228.45,117.09"/>
	<path id="GRIS5" class="st2" d="M300.09,114.39c1.67-0.02,3.34-0.24,4.96-0.65l0.76,2.16c-1.13,0.42-2.3,0.69-3.5,0.81
		c-1.62,0.24-3.26,0.37-4.9,0.38c-2.99-0.07-5.95-0.49-8.84-1.24c-3.04-0.63-5.86-2.03-8.2-4.06c-1.8-1.61-3.14-3.66-3.88-5.95
		c-0.87-2.8-1.28-5.72-1.21-8.65V60.86h-12.86v-2.27h12.86V45.27h14.38v13.32h19.65v2.27h-19.66v41.31
		c-0.12,3.11,0.75,6.18,2.48,8.76C294.03,113.36,297.03,114.66,300.09,114.39"/>
	<path id="GRIS6" class="st2" d="M403.17,110.17V70.79c-5.08-3.15-10.95-4.76-16.93-4.65c-5.09,0-8.82,1.35-11.2,4.06
		c-2.27,2.49-3.78,5.59-4.33,8.92c-1.02,7.54-1.02,15.18,0,22.72c0.55,3.33,2.05,6.43,4.33,8.92c2.37,2.71,6.11,4.06,11.2,4.06
		C392.22,114.92,398.1,113.31,403.17,110.17 M417.56,64.51v51.92h-14.38v-3.57c-5.19,2.82-11.02,4.27-16.93,4.22
		c-4.05,0.02-8.08-0.66-11.9-2c-3.73-1.31-7.2-3.27-10.24-5.79c-2.83-2.42-5.15-5.38-6.81-8.71c-1.56-3.14-2.36-6.61-2.36-10.12
		c0-3.52,0.8-7,2.36-10.17c1.64-3.33,3.96-6.28,6.81-8.65c3.05-2.52,6.51-4.48,10.24-5.79c3.82-1.34,7.85-2.02,11.9-2
		c5.91-0.05,11.73,1.4,16.93,4.22v-3.57L417.56,64.51z"/>
	<path id="GRIS7" class="st2" d="M523.95,85.93v30.51h-14.38V85.93l0.13-6.05c0.14-3.25-0.47-6.49-1.78-9.47
		c-1.19-2.34-3.52-3.52-7-3.52c-2.25-0.01-4.45,0.61-6.36,1.79c-1.83,1.07-3.33,2.62-4.33,4.49c-0.76,1.71-1.27,3.51-1.53,5.35
		c-0.29,2.46-0.42,4.93-0.38,7.41v30.51h-14.38V85.93l0.13-5.73c0.15-3.33-0.44-6.66-1.72-9.74c-1.15-2.38-3.5-3.57-7.06-3.57
		c-2.27-0.01-4.49,0.61-6.43,1.79c-1.84,1.03-3.33,2.6-4.26,4.49c-1.5,3.52-2.19,7.32-2.04,11.14v32.13h-14.38V64.51h14.38v6.82
		c0.95-1.42,2.11-2.7,3.44-3.79c3.59-2.57,7.94-3.86,12.35-3.68c6.28,0,11.16,1.77,14.64,5.3c1.54,1.61,2.79,3.48,3.69,5.52
		c0.89-2.83,2.62-5.32,4.96-7.14c8.42-5.45,19.4-4.79,27.11,1.62c1.98,2,3.41,4.48,4.13,7.2C523.64,79.49,524.01,82.71,523.95,85.93
		"/>
</g>
<g id="JAUNE_1_">
	<path id="JAUNE1" class="st3" d="M36.87,67.28l13.06,6.15l22.68-48.21H36.88L36.87,67.28z"/>
</g>
</svg>
